<?xml version="1.0" encoding="UTF-8" standalone="no"?>
<!DOCTYPE svg PUBLIC "-//W3C//DTD SVG 1.1//EN"
 "http://www.w3.org/Graphics/SVG/1.1/DTD/svg11.dtd">
<!-- Generated by graphviz version 2.36.0 (20140111.2315)
 -->
<!-- Title: controllers_diagram Pages: 1 -->
<svg width="557pt" height="330pt"
 viewBox="0.00 0.00 556.81 330.00" xmlns="http://www.w3.org/2000/svg" xmlns:xlink="http://www.w3.org/1999/xlink">
<g id="graph0" class="graph" transform="scale(1 1) rotate(0) translate(4 326)">
<title>controllers_diagram</title>
<polygon fill="white" stroke="none" points="-4,4 -4,-326 552.812,-326 552.812,4 -4,4"/>
<!-- _diagram_info -->
<g id="node1" class="node"><title>_diagram_info</title>
<text text-anchor="start" x="260" y="-58.6" font-family="Times,serif" font-size="13.00">Controllers diagram</text>
<text text-anchor="start" x="260" y="-45.6" font-family="Times,serif" font-size="13.00">Date: Jun 25 2014 &#45; 21:56</text>
<text text-anchor="start" x="260" y="-32.6" font-family="Times,serif" font-size="13.00">Migration version: 20140608170001</text>
<text text-anchor="start" x="260" y="-19.6" font-family="Times,serif" font-size="13.00">Generated by RailRoady 1.1.1</text>
<text text-anchor="start" x="260" y="-6.6" font-family="Times,serif" font-size="13.00">http://railroady.prestonlee.com</text>
</g>
<!-- Admins::Devise::SessionsController -->
<g id="node2" class="node"><title>Admins::Devise::SessionsController</title>
<path fill="none" stroke="black" d="M12,-84.5C12,-84.5 208.552,-84.5 208.552,-84.5 214.552,-84.5 220.552,-90.5 220.552,-96.5 220.552,-96.5 220.552,-164.5 220.552,-164.5 220.552,-170.5 214.552,-176.5 208.552,-176.5 208.552,-176.5 12,-176.5 12,-176.5 6,-176.5 0,-170.5 0,-164.5 0,-164.5 0,-96.5 0,-96.5 0,-90.5 6,-84.5 12,-84.5"/>
<text text-anchor="middle" x="110.276" y="-161.3" font-family="Times,serif" font-size="14.00">Admins::Devise::SessionsController</text>
<polyline fill="none" stroke="black" points="0,-154.5 220.552,-154.5 "/>
<polyline fill="none" stroke="black" points="0,-130.5 220.552,-130.5 "/>
<polyline fill="none" stroke="black" points="0,-106.5 220.552,-106.5 "/>
<text text-anchor="start" x="8" y="-91.3" font-family="Times,serif" font-size="14.00">_layout</text>
</g>
<!-- AdminsController -->
<g id="node3" class="node"><title>AdminsController</title>
<path fill="none" stroke="black" d="M285,-204.021C285,-204.021 378.883,-204.021 378.883,-204.021 384.883,-204.021 390.883,-210.021 390.883,-216.021 390.883,-216.021 390.883,-296.021 390.883,-296.021 390.883,-302.021 384.883,-308.021 378.883,-308.021 378.883,-308.021 285,-308.021 285,-308.021 279,-308.021 273,-302.021 273,-296.021 273,-296.021 273,-216.021 273,-216.021 273,-210.021 279,-204.021 285,-204.021"/>
<text text-anchor="middle" x="331.941" y="-292.821" font-family="Times,serif" font-size="14.00">AdminsController</text>
<polyline fill="none" stroke="black" points="273,-286.021 390.883,-286.021 "/>
<text text-anchor="start" x="281" y="-270.821" font-family="Times,serif" font-size="14.00">index</text>
<polyline fill="none" stroke="black" points="273,-264.021 390.883,-264.021 "/>
<polyline fill="none" stroke="black" points="273,-240.021 390.883,-240.021 "/>
<text text-anchor="start" x="281" y="-224.821" font-family="Times,serif" font-size="14.00">_layout</text>
<text text-anchor="start" x="281" y="-210.821" font-family="Times,serif" font-size="14.00">find_model</text>
</g>
<!-- ApplicationController -->
<g id="node4" class="node"><title>ApplicationController</title>
<path fill="none" stroke="black" d="M409.515,-189.5C409.515,-189.5 536.812,-189.5 536.812,-189.5 542.812,-189.5 548.812,-195.5 548.812,-201.5 548.812,-201.5 548.812,-309.5 548.812,-309.5 548.812,-315.5 542.812,-321.5 536.812,-321.5 536.812,-321.5 409.515,-321.5 409.515,-321.5 403.515,-321.5 397.515,-315.5 397.515,-309.5 397.515,-309.5 397.515,-201.5 397.515,-201.5 397.515,-195.5 403.515,-189.5 409.515,-189.5"/>
<text text-anchor="middle" x="473.164" y="-306.3" font-family="Times,serif" font-size="14.00">ApplicationController</text>
<polyline fill="none" stroke="black" points="397.515,-299.5 548.812,-299.5 "/>
<text text-anchor="start" x="405.515" y="-284.3" font-family="Times,serif" font-size="14.00">after_sign_in_path_for</text>
<text text-anchor="start" x="405.515" y="-270.3" font-family="Times,serif" font-size="14.00">after_sign_out_path_for</text>
<text text-anchor="start" x="405.515" y="-256.3" font-family="Times,serif" font-size="14.00">default_url_options</text>
<text text-anchor="start" x="405.515" y="-242.3" font-family="Times,serif" font-size="14.00">set_locale</text>
<polyline fill="none" stroke="black" points="397.515,-235.5 548.812,-235.5 "/>
<polyline fill="none" stroke="black" points="397.515,-211.5 548.812,-211.5 "/>
<text text-anchor="start" x="405.515" y="-196.3" font-family="Times,serif" font-size="14.00">_layout</text>
</g>
<!-- ApplicationController&#45;&gt;AdminsController -->
<g id="edge2" class="edge"><title>ApplicationController&#45;&gt;AdminsController</title>
<path fill="none" stroke="black" d="M397.179,-255.781C395.089,-255.788 393.007,-255.796 390.937,-255.804"/>
</g>
<!-- Devise::SessionsController -->
<g id="node5" class="node"><title>Devise::SessionsController</title>
<ellipse fill="none" stroke="black" cx="348.314" cy="-130.5" rx="106.292" ry="18"/>
<text text-anchor="middle" x="348.314" y="-126.3" font-family="Times,serif" font-size="14.00">Devise::SessionsController</text>
</g>
<!-- Devise::SessionsController&#45;&gt;Admins::Devise::SessionsController -->
<g id="edge1" class="edge"><title>Devise::SessionsController&#45;&gt;Admins::Devise::SessionsController</title>
<path fill="none" stroke="black" d="M241.827,-130.5C234.771,-130.5 227.656,-130.5 220.582,-130.5"/>
</g>
</g>
</svg>
