<?xml version="1.0" encoding="UTF-8" standalone="no"?>
<!DOCTYPE svg PUBLIC "-//W3C//DTD SVG 1.1//EN"
 "http://www.w3.org/Graphics/SVG/1.1/DTD/svg11.dtd">
<!-- Generated by graphviz version 2.36.0 (20140111.2315)
 -->
<!-- Title: models_diagram Pages: 1 -->
<svg width="528pt" height="430pt"
 viewBox="0.00 0.00 528.00 430.00" xmlns="http://www.w3.org/2000/svg" xmlns:xlink="http://www.w3.org/1999/xlink">
<g id="graph0" class="graph" transform="scale(1 1) rotate(0) translate(4 426)">
<title>models_diagram</title>
<polygon fill="white" stroke="none" points="-4,4 -4,-426 524,-426 524,4 -4,4"/>
<!-- _diagram_info -->
<g id="node1" class="node"><title>_diagram_info</title>
<text text-anchor="start" x="7.31226" y="-407.1" font-family="Times,serif" font-size="13.00">Models diagram</text>
<text text-anchor="start" x="7.31226" y="-394.1" font-family="Times,serif" font-size="13.00">Date: Jun 25 2014 &#45; 21:56</text>
<text text-anchor="start" x="7.31226" y="-381.1" font-family="Times,serif" font-size="13.00">Migration version: 20140608170001</text>
<text text-anchor="start" x="7.31226" y="-368.1" font-family="Times,serif" font-size="13.00">Generated by RailRoady 1.1.1</text>
<text text-anchor="start" x="7.31226" y="-355.1" font-family="Times,serif" font-size="13.00">http://railroady.prestonlee.com</text>
</g>
<!-- Admin -->
<g id="node2" class="node"><title>Admin</title>
<path fill="none" stroke="black" d="M104.722,-50C104.722,-50 285.278,-50 285.278,-50 291.278,-50 297.278,-56 297.278,-62 297.278,-62 297.278,-250 297.278,-250 297.278,-256 291.278,-262 285.278,-262 285.278,-262 104.722,-262 104.722,-262 98.7222,-262 92.7222,-256 92.7222,-250 92.7222,-250 92.7222,-62 92.7222,-62 92.7222,-56 98.7222,-50 104.722,-50"/>
<text text-anchor="middle" x="195" y="-246.8" font-family="Times,serif" font-size="14.00">Admin</text>
<polyline fill="none" stroke="black" points="92.7222,-240 297.278,-240 "/>
<text text-anchor="start" x="100.722" y="-224.8" font-family="Times,serif" font-size="14.00">id :integer</text>
<text text-anchor="start" x="100.722" y="-210.8" font-family="Times,serif" font-size="14.00">email :string</text>
<text text-anchor="start" x="100.722" y="-196.8" font-family="Times,serif" font-size="14.00">encrypted_password :string</text>
<text text-anchor="start" x="100.722" y="-182.8" font-family="Times,serif" font-size="14.00">reset_password_token :string</text>
<text text-anchor="start" x="100.722" y="-168.8" font-family="Times,serif" font-size="14.00">reset_password_sent_at :datetime</text>
<text text-anchor="start" x="100.722" y="-154.8" font-family="Times,serif" font-size="14.00">remember_created_at :datetime</text>
<text text-anchor="start" x="100.722" y="-140.8" font-family="Times,serif" font-size="14.00">sign_in_count :integer</text>
<text text-anchor="start" x="100.722" y="-126.8" font-family="Times,serif" font-size="14.00">current_sign_in_at :datetime</text>
<text text-anchor="start" x="100.722" y="-112.8" font-family="Times,serif" font-size="14.00">last_sign_in_at :datetime</text>
<text text-anchor="start" x="100.722" y="-98.8" font-family="Times,serif" font-size="14.00">current_sign_in_ip :string</text>
<text text-anchor="start" x="100.722" y="-84.8" font-family="Times,serif" font-size="14.00">last_sign_in_ip :string</text>
<text text-anchor="start" x="100.722" y="-70.8" font-family="Times,serif" font-size="14.00">created_at :datetime</text>
<text text-anchor="start" x="100.722" y="-56.8" font-family="Times,serif" font-size="14.00">updated_at :datetime</text>
</g>
<!-- Business -->
<g id="node3" class="node"><title>Business</title>
<path fill="none" stroke="black" d="M327.722,-1C327.722,-1 508.278,-1 508.278,-1 514.278,-1 520.278,-7 520.278,-13 520.278,-13 520.278,-299 520.278,-299 520.278,-305 514.278,-311 508.278,-311 508.278,-311 327.722,-311 327.722,-311 321.722,-311 315.722,-305 315.722,-299 315.722,-299 315.722,-13 315.722,-13 315.722,-7 321.722,-1 327.722,-1"/>
<text text-anchor="middle" x="418" y="-295.8" font-family="Times,serif" font-size="14.00">Business</text>
<polyline fill="none" stroke="black" points="315.722,-289 520.278,-289 "/>
<text text-anchor="start" x="323.722" y="-273.8" font-family="Times,serif" font-size="14.00">id :integer</text>
<text text-anchor="start" x="323.722" y="-259.8" font-family="Times,serif" font-size="14.00">email :string</text>
<text text-anchor="start" x="323.722" y="-245.8" font-family="Times,serif" font-size="14.00">encrypted_password :string</text>
<text text-anchor="start" x="323.722" y="-231.8" font-family="Times,serif" font-size="14.00">reset_password_token :string</text>
<text text-anchor="start" x="323.722" y="-217.8" font-family="Times,serif" font-size="14.00">reset_password_sent_at :datetime</text>
<text text-anchor="start" x="323.722" y="-203.8" font-family="Times,serif" font-size="14.00">remember_created_at :datetime</text>
<text text-anchor="start" x="323.722" y="-189.8" font-family="Times,serif" font-size="14.00">sign_in_count :integer</text>
<text text-anchor="start" x="323.722" y="-175.8" font-family="Times,serif" font-size="14.00">current_sign_in_at :datetime</text>
<text text-anchor="start" x="323.722" y="-161.8" font-family="Times,serif" font-size="14.00">last_sign_in_at :datetime</text>
<text text-anchor="start" x="323.722" y="-147.8" font-family="Times,serif" font-size="14.00">current_sign_in_ip :string</text>
<text text-anchor="start" x="323.722" y="-133.8" font-family="Times,serif" font-size="14.00">last_sign_in_ip :string</text>
<text text-anchor="start" x="323.722" y="-119.8" font-family="Times,serif" font-size="14.00">confirmation_token :string</text>
<text text-anchor="start" x="323.722" y="-105.8" font-family="Times,serif" font-size="14.00">confirmed_at :datetime</text>
<text text-anchor="start" x="323.722" y="-91.8" font-family="Times,serif" font-size="14.00">confirmation_sent_at :datetime</text>
<text text-anchor="start" x="323.722" y="-77.8" font-family="Times,serif" font-size="14.00">unconfirmed_email :string</text>
<text text-anchor="start" x="323.722" y="-63.8" font-family="Times,serif" font-size="14.00">failed_attempts :integer</text>
<text text-anchor="start" x="323.722" y="-49.8" font-family="Times,serif" font-size="14.00">unlock_token :string</text>
<text text-anchor="start" x="323.722" y="-35.8" font-family="Times,serif" font-size="14.00">locked_at :datetime</text>
<text text-anchor="start" x="323.722" y="-21.8" font-family="Times,serif" font-size="14.00">created_at :datetime</text>
<text text-anchor="start" x="323.722" y="-7.8" font-family="Times,serif" font-size="14.00">updated_at :datetime</text>
</g>
<!-- ActiveRecord::Base -->
<g id="node4" class="node"><title>ActiveRecord::Base</title>
<ellipse fill="none" stroke="black" cx="306" cy="-385" rx="80.9821" ry="18"/>
<text text-anchor="middle" x="306" y="-380.8" font-family="Times,serif" font-size="14.00">ActiveRecord::Base</text>
</g>
<!-- ActiveRecord::Base&#45;&gt;Admin -->
<g id="edge1" class="edge"><title>ActiveRecord::Base&#45;&gt;Admin</title>
<path fill="none" stroke="black" d="M297.657,-366.938C286.59,-344.306 266.145,-302.494 246.396,-262.107"/>
</g>
<!-- ActiveRecord::Base&#45;&gt;Business -->
<g id="edge2" class="edge"><title>ActiveRecord::Base&#45;&gt;Business</title>
<path fill="none" stroke="black" d="M314.418,-366.938C321.006,-353.586 330.888,-333.557 341.976,-311.084"/>
</g>
</g>
</svg>
